# xmcd
#
# Track frame offsets:
#	150
#	12838
#	30156
#	45577
#	58467
#	74080
#	89791
#	108862
#	124042
#	137487
#
# Disc length: 2028 seconds
#
# Revision: 12
# Processed by: cddbd v1.5.2PL0 Copyright (c) Steve Scherf et al.
# Submitted via: EasyCDDAExtractor 16.0.6.1
#
DISCID=8807ea0a
DTITLE=Confederate Railroad - C-106 Confederate Railroad
DYEAR=1992
DGENRE=Country
TTITLE0=She Took It Like a Man
TTITLE1=Long Gone
TTITLE2=Jesus And Mama
TTITLE3=Time Off For Bad Behavior
TTITLE4=She Never Cried
TTITLE5=Black Label, White Lies
TTITLE6=When You Leave That Way You Can Never Go Back
TTITLE7=Queen Of Memphis
TTITLE8=You Don't Know What It's Like
TTITLE9=Trashy Women
EXTD=YEAR: 1992
EXTT0=
EXTT1=
EXTT2=
EXTT3=
EXTT4=
EXTT5=
EXTT6=
EXTT7=
EXTT8=
EXTT9=
PLAYORDER=
